<svg xmlns="http://www.w3.org/2000/svg" viewBox="0 0 720 320" fill="none" aria-hidden="true">
  <rect width="720" height="320" fill="#E8F3EA"/>
  <rect x="0" y="210" width="720" height="110" fill="#D9E6D4"/>
  <rect x="40" y="40" width="640" height="170" rx="8" fill="#F4EFE4"/>
  <rect x="70" y="58" width="90" height="70" rx="6" fill="#EFE6D6"/>
  <rect x="180" y="58" width="90" height="70" rx="6" fill="#EFE6D6"/>
  <rect x="450" y="58" width="90" height="70" rx="6" fill="#EFE6D6"/>
  <rect x="560" y="58" width="90" height="70" rx="6" fill="#EFE6D6"/>
  <rect x="168" y="228" width="220" height="22" rx="11" fill="#2C6B4A"/>
  <circle cx="278" cy="168" r="22" fill="#2C6B4A"/>
  <path d="M236 230 c8-36 22-52 42-52 s34 16 42 52" fill="#3D8A60"/>
  <g transform="translate(430 186)">
    <rect x="18" y="8" width="50" height="26" rx="13" fill="#F3E2CD" stroke="#7A5430" stroke-width="3"/>
    <circle cx="28" cy="38" r="7" fill="#5B7466"/>
    <circle cx="58" cy="38" r="7" fill="#5B7466"/>
    <circle cx="16" cy="16" r="8" fill="#C47B4A"/>
  </g>
</svg>
