<svg xmlns="http://www.w3.org/2000/svg" viewBox="0 0 720 320" fill="none" aria-hidden="true">
  <rect width="720" height="320" fill="#E8F3EA"/>
  <path d="M0 220 H720 V320 H0Z" fill="#D9E6D4"/>
  <rect x="86" y="48" width="548" height="150" rx="12" fill="#F4EFE4"/>
  <rect x="118" y="72" width="36" height="88" fill="#2C6B4A"/>
  <rect x="162" y="84" width="28" height="76" fill="#C47B4A"/>
  <rect x="198" y="64" width="32" height="96" fill="#3D8A60"/>
  <rect x="490" y="76" width="34" height="84" fill="#7A5430"/>
  <rect x="532" y="62" width="40" height="98" fill="#2C6B4A"/>
  <rect x="580" y="88" width="26" height="72" fill="#F3D7B0"/>
  <circle cx="300" cy="168" r="22" fill="#2C6B4A"/>
  <path d="M258 230 c8-34 20-50 42-50 s34 16 42 50" fill="#3D8A60"/>
  <circle cx="420" cy="186" r="16" fill="#C47B4A"/>
  <path d="M392 230 c6-22 14-32 28-32 s22 10 28 32" fill="#D89A6A"/>
  <rect x="248" y="248" width="28" height="28" rx="4" fill="#F3E2CD"/>
  <rect x="284" y="248" width="28" height="28" rx="4" fill="#2C6B4A"/>
  <rect x="320" y="248" width="28" height="28" rx="4" fill="#C47B4A"/>
</svg>
